<svg xmlns="http://www.w3.org/2000/svg" viewBox="0 0 492.92 227.75"><defs><style>.cls-1,.cls-7{fill:#eb5d65;}.cls-2{fill:#fff;}.cls-3{fill:#eef3f7;}.cls-4,.cls-9{fill:#fbd34d;}.cls-5{fill:#eeba37;}.cls-6{fill:#f9f089;}.cls-7,.cls-9{font-size:65.53px;}.cls-12,.cls-7,.cls-9{font-family:ArialRoundedMTBold, Arial Rounded MT Bold;}.cls-8{letter-spacing:-0.09em;}.cls-10{letter-spacing:-0.04em;}.cls-11{letter-spacing:-0.02em;}.cls-12{font-size:29.86px;}.cls-12,.cls-15{fill:#66a0d7;}.cls-13{letter-spacing:-0.04em;}.cls-14{fill:#ef7c6c;}.cls-16{fill:#9460a4;}.cls-17{fill:#dfecce;}.cls-18{font-size:16.59px;fill:#1d1d1b;font-family:DINAlternate-Bold, DIN Alternate;font-weight:700;}.cls-19{letter-spacing:-0.07em;}.cls-20{letter-spacing:-0.02em;}.cls-21{letter-spacing:-0.02em;}</style></defs><g id="Capa_2" data-name="Capa 2"><g id="Capa_1-2" data-name="Capa 1"><ellipse class="cls-1" cx="109.78" cy="111.2" rx="109.78" ry="99.19"/><path class="cls-2" d="M101.13,90.29a27.53,27.53,0,0,0,16,0c4.4,0,4.4,11.81,0,11.81h-16C96.72,102.1,97,89,101.13,90.29Z"/><path class="cls-2" d="M101.13,81a27.53,27.53,0,0,0,16,0c4.4,0,4.4,11.81,0,11.81h-16C96.72,92.82,97,79.71,101.13,81Z"/><path class="cls-2" d="M101.13,71.73a27.53,27.53,0,0,0,16,0c4.4,0,4.4,11.81,0,11.81h-16C96.72,83.54,97,70.43,101.13,71.73Z"/><path class="cls-2" d="M101.13,62.45a27.53,27.53,0,0,0,16,0c4.4,0,4.4,11.81,0,11.81h-16C96.72,74.26,97,61.15,101.13,62.45Z"/><path class="cls-2" d="M101.13,53.17a27.53,27.53,0,0,0,16,0c4.4,0,4.4,11.81,0,11.81h-16C96.72,65,97,51.87,101.13,53.17Z"/><path class="cls-2" d="M101.13,43.89a27.53,27.53,0,0,0,16,0c4.4,0,4.4,11.81,0,11.81h-16C96.72,55.7,97,42.59,101.13,43.89Z"/><path class="cls-2" d="M101.13,34.61a27.45,27.45,0,0,0,16,0c4.4,0,4.4,11.81,0,11.81h-16C96.72,46.42,97,33.31,101.13,34.61Z"/><path class="cls-3" d="M120.27,38.42a2.9,2.9,0,0,1-2.21,1H100.21A2.71,2.71,0,0,1,98,38.33a7.14,7.14,0,0,1,.88-2.73,2.58,2.58,0,0,0,2.21,1.54h16a2.6,2.6,0,0,0,2.14-1.26,6.84,6.84,0,0,1,1,2.54Z"/><path class="cls-2" d="M128.18,107.82c5.94,12.58,19.68,10.55,18,15.47s-3.27,8.72-9.65,5.06c-5.52-3.16-21.23-7.26-23-15.27H107.8c-1.81,8-17.53,12.11-23,15.27-6.38,3.66-7.94-.14-9.65-5.06s12-2.89,18-15.47a6.62,6.62,0,0,1,1.62-2.13c-.16-4.3,1.26-8.7,4.13-7.81a35.25,35.25,0,0,0,20.62,0c2.5,0,3.89,3,4.19,6.24a7,7,0,0,1,4.55,3.7Z"/><path class="cls-2" d="M101.13,25.33a27.45,27.45,0,0,0,16,0c4.4,0,4.4,11.81,0,11.81h-16C96.72,37.14,97,24,101.13,25.33Z"/><path class="cls-3" d="M120.27,47.7a2.9,2.9,0,0,1-2.21,1H100.21A2.69,2.69,0,0,1,98,47.6a7.14,7.14,0,0,1,.88-2.72,2.58,2.58,0,0,0,2.21,1.54h16a2.6,2.6,0,0,0,2.14-1.26,6.84,6.84,0,0,1,1,2.54Z"/><path class="cls-3" d="M120.27,57A2.87,2.87,0,0,1,118.06,58H100.21A2.72,2.72,0,0,1,98,56.88a7.14,7.14,0,0,1,.88-2.72,2.59,2.59,0,0,0,2.21,1.54h16a2.59,2.59,0,0,0,2.14-1.27,7,7,0,0,1,1,2.54Z"/><path class="cls-3" d="M120.27,66.25a2.87,2.87,0,0,1-2.21,1H100.21A2.72,2.72,0,0,1,98,66.16a7.14,7.14,0,0,1,.88-2.72A2.59,2.59,0,0,0,101.13,65h16a2.59,2.59,0,0,0,2.14-1.27,7,7,0,0,1,1,2.54Z"/><path class="cls-3" d="M120.27,75.53a2.87,2.87,0,0,1-2.21,1H100.21A2.72,2.72,0,0,1,98,75.44a7.14,7.14,0,0,1,.88-2.72,2.59,2.59,0,0,0,2.21,1.54h16A2.59,2.59,0,0,0,119.3,73a6.84,6.84,0,0,1,1,2.54Z"/><path class="cls-3" d="M120.27,84.81a2.87,2.87,0,0,1-2.21,1H100.21A2.71,2.71,0,0,1,98,84.72,7.19,7.19,0,0,1,98.92,82a2.58,2.58,0,0,0,2.21,1.54h16a2.58,2.58,0,0,0,2.14-1.26,6.84,6.84,0,0,1,1,2.54Z"/><path class="cls-3" d="M120.27,94.09a2.87,2.87,0,0,1-2.21,1H100.21A2.71,2.71,0,0,1,98,94a7.19,7.19,0,0,1,.88-2.73,2.58,2.58,0,0,0,2.21,1.54h16a2.58,2.58,0,0,0,2.14-1.26,6.84,6.84,0,0,1,1,2.54Z"/><path class="cls-3" d="M143.85,128.25c-1.43,1.81-3.52,2.29-7.35.1-5.52-3.16-21.23-7.26-23-15.27H107.8c-1.81,8-17.53,12.11-23,15.27-3.83,2.19-5.92,1.71-7.35-.1,1.18-.91,3.5-.84,5.54-1.41,3.48-1,20.93-10,22.54-12s.73-8.16.73-8.16c1.07.91,1.74,4.44,1.74,4.44l2.68,0,2.67,0s.67-3.53,1.74-4.44c0,0-.87,6.1.74,8.16s19.05,11.05,22.53,12c2,.57,4.36.5,5.54,1.41Z"/><path class="cls-4" d="M94.19,82.72s-.09-.24-.28-.62a7.65,7.65,0,0,0-8.76-4.46c-6.72,1.43-40.37,18.54-47.58,31.23a43.14,43.14,0,0,0-5.25,25.44s-12.83,18.43-12.83,42.93,6.11,27.37,10.26,29.35,15.64-.22,24.92-4.19S64.44,198,64.44,198c10.08,4.41,27.57,3.33,25.28-9.05,0,0,11-9.71,12-18.43s-2.8-18.87-2.8-18.87a25.07,25.07,0,0,0,6.83-17c0-10.48-9.64-9.16-12-25.49s2.57-21.85.44-26.43Z"/><path class="cls-5" d="M64.51,198c10.09,4.38,27.49,3.27,25.21-9.08,0,0,11-9.71,12-18.43s-2.8-18.87-2.8-18.87a25.07,25.07,0,0,0,6.83-17,11.81,11.81,0,0,0-1-5.17l-.48.6c.85,9-3.34,17.27-8.69,19.7,4.78,16.29,4.29,24.32-9.23,36.25,0,0,.13,10.27-7.09,11.84s-15.79-1.5-15.79-1.5L64.51,198Z"/><path class="cls-4" d="M125.37,82.72s.09-.24.27-.62a7.67,7.67,0,0,1,8.77-4.46c6.72,1.43,40.37,18.54,47.58,31.23a43.14,43.14,0,0,1,5.25,25.44s12.83,18.43,12.83,42.93-6.11,27.37-10.26,29.35-15.64-.22-24.92-4.19-9.77-4.41-9.77-4.41-16.12,7.06-23.21-1.77c0,0-3-2-2.07-7.28,0,0-11-9.71-12-18.43s2.81-18.87,2.81-18.87a25.07,25.07,0,0,1-6.83-17c0-10.48,9.64-9.16,12-25.49s-2.57-21.85-.44-26.43Z"/><path class="cls-5" d="M64.44,198c-5.13-3.56-23.14-3-31.7.58-3.63,1.52-5.68,4-6.32,6.07a16.44,16.44,0,0,0,3.33,2c4.15,2,15.63-.22,24.92-4.19S64.44,198,64.44,198Z"/><path class="cls-5" d="M155.12,198c5.13-3.56,23.14-3,31.7.58,3.63,1.52,5.68,4,6.32,6.07a16.44,16.44,0,0,1-3.33,2c-4.15,2-15.63-.22-24.92-4.19s-9.77-4.41-9.77-4.41Z"/><path class="cls-3" d="M120.13,28.52a5.15,5.15,0,0,1-1.7.95c-4.7,1.6-13.75,1.6-18.45,0a4.9,4.9,0,0,1-1.83-1.07,7.37,7.37,0,0,1,.57-1.7,4.93,4.93,0,0,0,1.26.62c4.7,1.6,13.75,1.6,18.45,0a5.12,5.12,0,0,0,1-.47,6.61,6.61,0,0,1,.66,1.67Z"/><path class="cls-2" d="M99.46,21.37c-2.5.39-3.08,5.2,1.08,6.46,4.41,1.33,12.91,1.33,17.33,0,4.15-1.26,3.57-6.07,1.07-6.46C114.78,23.72,103.6,24.08,99.46,21.37Z"/><path class="cls-5" d="M66.57,93.2a.43.43,0,0,1,.18-.62.54.54,0,0,1,.69.16s3.37,5.23.11,7.53c.63,1.64,3.22,8.9.29,12.26,3.1,1.9,5.29,4.71,4.73,8.86,3.06-.92,6.41-2.14,9.54-3.28,1.94-.71,3.79-1.38,5.47-2h0c4-1.33,6.87-2,7.4-.65a.44.44,0,0,1-.3.59.53.53,0,0,1-.65-.27c-.25-.61-2.7,0-6.1,1.18l0,0c-1.65.55-3.51,1.23-5.46,1.94l-1.28.47h0c2.72,7.74-4,12.53-10.88,17.48l-.28.2c3.62,8,16.56,3.79,19.36,2.76-2.44-3.94,3.1-7.63,3.12-7.64a.54.54,0,0,1,.7.09.43.43,0,0,1-.1.64c-7.21,4.94-1.76,11,7.67,7.55a.53.53,0,0,1,.66.25.45.45,0,0,1-.29.59s-7.84,2.89-11.17-.71c-2.44.92-16.56,5.78-20.77-2.94a56.49,56.49,0,0,0-6.25,5c-6.92,6.63,1.4,20.11,2.85,22.34,1.93-.6,10.35-2.84,12.19,2.46a17.33,17.33,0,0,1,3.75.15c1.88.22,3.19.38,3.47-1.51a.49.49,0,0,1,.57-.39.46.46,0,0,1,.43.51c-.41,2.79-2.14,2.59-4.6,2.29a14.32,14.32,0,0,0-3.92-.09c-3.29.48.77,4.68.78,4.69a.42.42,0,0,1,0,.64.55.55,0,0,1-.72,0s-4.87-5-.72-6.08c-1.67-4.38-9.31-2.26-10.92-1.75-1.1,12.24,2.72,19.13,3.54,20.46h.29a8.63,8.63,0,0,1,5.63,2.6c1.24,1.17,2.87,3.29,2.87,5a.48.48,0,0,1-.51.45.47.47,0,0,1-.5-.45c0-1.49-1.53-3.4-2.59-4.39a7.61,7.61,0,0,0-4.91-2.32l-.46,0h0c-3.59.43-2.63,5-2.63,5a.46.46,0,0,1-.4.53.5.5,0,0,1-.59-.36s-1-5,2.8-6c-1.13-2-4.58-9-3.49-20.84-1-1.47-9.82-15.21-3.62-22.78-3,.31-10.65,1.91-10.29,10.05a3.82,3.82,0,0,1,.59,0,4.11,4.11,0,0,1,1.73.38,5.75,5.75,0,0,1,1.57,1.08.43.43,0,0,1,0,.65.55.55,0,0,1-.71,0,4.91,4.91,0,0,0-1.31-.89,3.08,3.08,0,0,0-1.28-.29,2.75,2.75,0,0,0-.86.11l-.1,0a6.78,6.78,0,0,0-3,2.31.54.54,0,0,1-.69.14.43.43,0,0,1-.15-.63,7.73,7.73,0,0,1,3.25-2.57c-.63-10.39,10.51-11.23,12.21-11.29a68.56,68.56,0,0,1,7.32-5.74c6.62-4.74,13-9.31,10.55-16.43-2.64,1-5.36,1.9-7.88,2.63a.5.5,0,0,1-.55.26l-.17,0a24.41,24.41,0,0,1-6.87,1.14c-6.34-.24-11.88.18-15.94,2s-6.56,5.1-7.08,10.59a17.44,17.44,0,0,1-6.49,12.09c5.26,6.62,1.45,17.33.5,19.71,1.55.41,5.75,1.92,6.16,6.07a.48.48,0,0,1-.46.49.5.5,0,0,1-.55-.41c-.41-4.22-5.46-5.31-5.89-5.39h0a5.29,5.29,0,0,0-2,.08,5.35,5.35,0,0,0-3.07,2.18,10.79,10.79,0,0,0-1.74,4.34,18.4,18.4,0,0,0,.54,8.54.46.46,0,0,1-.36.56.52.52,0,0,1-.62-.33,19.35,19.35,0,0,1-.56-8.92,11.76,11.76,0,0,1,1.9-4.69,6.37,6.37,0,0,1,3.65-2.56,6,6,0,0,1,2.05-.14c.81-2,4.71-12.53-.28-18.91A20.32,20.32,0,0,1,30,151.63c0,2.43-2.4,3.72-2.41,3.72a.54.54,0,0,1-.69-.16.44.44,0,0,1,.19-.63s2.11-1.11,1.89-3.16h0v0c-.22-1.78-2.17-1.22-2.17-1.22a.52.52,0,0,1-.63-.31.46.46,0,0,1,.35-.57s2.67-.76,3.33,1.43a17.6,17.6,0,0,0,10.89-14.38c.55-5.86,3.32-9.36,7.63-11.33s9.93-2.38,16.43-2.14a23.48,23.48,0,0,0,6.68-1.14C73,113,60.3,110,53.38,109.53c.6,4.36-7.27,6.47-7.29,6.47a.52.52,0,0,1-.63-.3.45.45,0,0,1,.33-.57s7.68-2.06,6.49-6h0c-1.22-3.94-5.58-3.28-5.59-3.28a.51.51,0,0,1-.57-.39.47.47,0,0,1,.42-.52s5-.75,6.61,3.64c1.64.1,8.68.68,13.84,3.44,2.64-2.8.41-9.39-.31-11.27a7.84,7.84,0,0,1-5.72.85.46.46,0,0,1-.31-.59.53.53,0,0,1,.65-.27s2.17.76,5.36-1h0c3-1.71-.1-6.5-.11-6.51Z"/><path class="cls-5" d="M153.09,93.2a.43.43,0,0,0-.18-.62.54.54,0,0,0-.69.16s-3.37,5.23-.1,7.53c-.64,1.64-3.23,8.9-.29,12.26-3.11,1.9-5.3,4.71-4.74,8.86-3.05-.92-6.4-2.14-9.53-3.28-1.94-.71-3.8-1.38-5.48-2h0c-4-1.33-6.88-2-7.41-.65a.45.45,0,0,0,.3.59.53.53,0,0,0,.65-.27c.25-.61,2.7,0,6.11,1.18l0,0c1.64.55,3.5,1.23,5.45,1.94l1.29.47h0c-2.72,7.74,4,12.53,10.88,17.48l.29.2c-3.62,8-16.56,3.79-19.37,2.76,2.45-3.94-3.1-7.63-3.11-7.64a.55.55,0,0,0-.71.09.44.44,0,0,0,.1.64c7.21,4.94,1.76,11-7.67,7.55a.51.51,0,0,0-.65.25.43.43,0,0,0,.28.59s7.84,2.89,11.18-.71c2.43.92,16.55,5.78,20.77-2.94a57.31,57.31,0,0,1,6.24,5c6.92,6.63-1.4,20.11-2.85,22.34-1.92-.6-10.35-2.84-12.18,2.46a17.39,17.39,0,0,0-3.76.15c-1.87.22-3.19.38-3.47-1.51a.48.48,0,0,0-.56-.39.47.47,0,0,0-.44.51c.42,2.79,2.14,2.59,4.6,2.29a14.38,14.38,0,0,1,3.93-.09c3.28.48-.77,4.68-.78,4.69a.42.42,0,0,0,0,.64.53.53,0,0,0,.71,0s4.87-5,.72-6.08c1.67-4.38,9.31-2.26,10.92-1.75,1.1,12.24-2.71,19.13-3.53,20.46h-.29a8.65,8.65,0,0,0-5.64,2.6c-1.24,1.17-2.87,3.29-2.87,5a.51.51,0,0,0,1,0c0-1.49,1.53-3.4,2.58-4.39a7.61,7.61,0,0,1,4.91-2.32l.47,0h0c3.6.43,2.63,5,2.63,5a.46.46,0,0,0,.4.53.49.49,0,0,0,.59-.36s1.05-5-2.8-6c1.14-2,4.59-9,3.49-20.84,1-1.47,9.82-15.21,3.62-22.78,3,.31,10.65,1.91,10.3,10.05a4,4,0,0,0-.6,0,4.1,4.1,0,0,0-1.72.38,5.64,5.64,0,0,0-1.58,1.08.43.43,0,0,0,0,.65.56.56,0,0,0,.72,0,4.87,4.87,0,0,1,1.3-.89,3.15,3.15,0,0,1,1.28-.29,2.75,2.75,0,0,1,.86.11l.1,0a6.71,6.71,0,0,1,3,2.31.55.55,0,0,0,.7.14.43.43,0,0,0,.14-.63,7.73,7.73,0,0,0-3.25-2.57c.63-10.39-10.5-11.23-12.2-11.29A69.58,69.58,0,0,0,150,136.2c-6.63-4.74-13-9.31-10.56-16.43,2.65,1,5.36,1.9,7.88,2.63a.5.5,0,0,0,.56.26l.16,0a24.47,24.47,0,0,0,6.88,1.14c6.34-.24,11.88.18,15.93,2s6.56,5.1,7.08,10.59a17.41,17.41,0,0,0,6.5,12.09c-5.26,6.62-1.46,17.33-.51,19.71-1.54.41-5.74,1.92-6.15,6.07a.46.46,0,0,0,.46.49.49.49,0,0,0,.54-.41c.42-4.22,5.47-5.31,5.89-5.39h0a5.07,5.07,0,0,1,5.07,2.26,10.8,10.8,0,0,1,1.75,4.34,18.53,18.53,0,0,1-.54,8.54.46.46,0,0,0,.35.56.52.52,0,0,0,.62-.33,19.21,19.21,0,0,0,.56-8.92,11.61,11.61,0,0,0-1.9-4.69,6.35,6.35,0,0,0-3.64-2.56,6,6,0,0,0-2.05-.14c-.81-2-4.72-12.53.27-18.91a20.79,20.79,0,0,0,4.49,2.55c-.05,2.43,2.41,3.72,2.41,3.72a.54.54,0,0,0,.69-.16.44.44,0,0,0-.18-.63s-2.11-1.11-1.9-3.16h0v0c.21-1.78,2.16-1.22,2.17-1.22a.51.51,0,0,0,.62-.31.46.46,0,0,0-.35-.57s-2.66-.76-3.33,1.43a17.57,17.57,0,0,1-10.88-14.38c-.55-5.86-3.33-9.36-7.64-11.33s-9.93-2.38-16.42-2.14a23.54,23.54,0,0,1-6.69-1.14c-1.53-8.68,11.21-11.68,18.12-12.17-.59,4.36,7.28,6.47,7.3,6.47a.52.52,0,0,0,.63-.3.45.45,0,0,0-.34-.57s-7.68-2.06-6.48-6h0c1.22-3.94,5.58-3.28,5.59-3.28a.51.51,0,0,0,.58-.39.47.47,0,0,0-.43-.52s-5-.75-6.61,3.64c-1.64.1-8.68.68-13.84,3.44-2.64-2.8-.4-9.39.32-11.27a7.81,7.81,0,0,0,5.71.85A.45.45,0,0,0,159,101a.52.52,0,0,0-.65-.27s-2.17.76-5.36-1h0c-3-1.71.11-6.5.11-6.51Z"/><path class="cls-5" d="M125.37,82.72a11.23,11.23,0,0,1,12.22-2.25c7.49,2.9,36.24,18.15,41.89,30.18a52.7,52.7,0,0,1,4.85,23.59s19,39.81,13.47,62.9c1.36-4.21,2.27-10.44,2.27-19.9,0-24.5-12.83-42.93-12.83-42.93A43.14,43.14,0,0,0,182,108.87c-7.21-12.69-40.86-29.8-47.58-31.23a7.68,7.68,0,0,0-8.77,4.46c-.18.37-.27.62-.27.62Z"/><path class="cls-6" d="M87.33,77.44C79.58,79.66,62,88.92,53,95.2c-13.65,9.6-20.84,21-18.61,38.17,0,0-13.24,22.65-14.93,43.87,0-24.5,12.83-42.93,12.83-42.93-1.29-8.43,1.64-21.56,7.4-28.48l.53-.63c9.37-10.69,34-25.24,44.9-27.56A8.5,8.5,0,0,1,87.33,77.44Z"/><text class="cls-7" transform="translate(209.97 99.76)"><tspan class="cls-8">P</tspan><tspan x="37.95" y="0">ARA</tspan></text><text class="cls-9" transform="translate(212.87 151.5)"><tspan class="cls-10">D</tspan><tspan class="cls-11" x="46.01" y="0">Y</tspan><tspan x="85.33" y="0">S</tspan></text><text class="cls-12" transform="translate(219.97 179.31)">PR<tspan class="cls-13" x="41.39" y="0">O</tspan><tspan x="63.9" y="0">TEOMICS</tspan></text><circle class="cls-14" cx="384.35" cy="27.98" r="12.01"/><circle class="cls-15" cx="412.88" cy="59.03" r="12.01"/><circle class="cls-16" cx="428.33" cy="95.13" r="12.01"/><circle class="cls-17" cx="342.41" cy="12.01" r="12.01"/><text class="cls-18" transform="translate(221.13 198.74)">Multi<tspan class="cls-19" x="34.34" y="0">P</tspan><tspan x="42.95" y="0">ARAmetric B</tspan><tspan class="cls-20" x="132.23" y="0">r</tspan><tspan x="138.38" y="0">onchopulmonary </tspan><tspan class="cls-21" x="0" y="19.91">D</tspan><tspan x="10.05" y="19.91">YSplasia P</tspan><tspan class="cls-20" x="83.09" y="19.91">r</tspan><tspan x="89.25" y="19.91">ediction</tspan></text></g></g></svg>